P2
#LSS.pgm
28 14
255
255 255 255 255 255 255 255 255 255 255 255 255 255 255 255 255 255 255 255 255 255 255 255 255 255 255 255 255
255 255 255 255 255 255 255 255 255 255 255 255 255 255 255 255 255 255 255 255 255 255 255 255 255 255 255 255
255 255 255 255 255   0   0 255 255 255 255 255   0   0   0   0   0 255 255 255 255   0   0   0   0   0 255 255
255 255 255 255 255   0   0 255 255   0   0   0   0   0   0   0 255 255   0   0   0   0   0   0   0 255 255 255
255 255 255 255   0   0   0 255 255 255 255 255 255 255 255 255 255 255 255 255 255 255 255 255 255 255 255 255
255 255 255 255   0   0 255 255 255 255 255 255 255 255 255 255 255 255 255 255 255 255 255 255 255 255 255 255
255 255 255 255   0   0 255 255   0   0   0   0   0   0 255 255 255   0   0   0   0   0   0 255 255 255 255 255
255 255 255   0   0 255 255 255   0   0   0   0   0   0   0 255 255   0   0   0   0   0   0   0 255 255 255 255
255 255   0   0   0 255 255 255 255 255 255 255 255 255 255 255 255 255 255 255 255 255 255 255 255 255 255 255
255 255   0   0   0 255 255 255 255 255 255 255 255 255 255 255 255 255 255 255 255 255 255 255 255 255 255 255
255 255   0   0   0   0   0   0   0   0   0   0   0 255 255   0   0   0   0   0   0   0   0 255 255 255 255 255
255 255   0   0   0   0   0   0   0   0   0   0 255 255 255   0   0   0   0   0   0   0 255 255 255 255 255 255
255 255 255 255 255 255 255 255 255 255 255 255 255 255 255 255 255 255 255 255 255 255 255 255 255 255 255 255
255 255 255 255 255 255 255 255 255 255 255 255 255 255 255 255 255 255 255 255 255 255 255 255 255 255 255 255
